# xmcd CD database file
#
# Track frame offsets:
#	150
#	17321
#	34647
#	51818
#
# Disc length: 917 seconds
#
# Revision: 0
# Processed by: cddbd v1.5.1PL0 Copyright (c) Steve Scherf et al.
# Submitted via: CDex 1.51
#
DISCID=21039304
DTITLE=大塚愛 - Happy Days
DYEAR=2004
DGENRE=JPop
TTITLE0=Happy Days
TTITLE1=星くず
TTITLE2=Happy Days ［Instrumental］
TTITLE3=星くず ［Instrumental］
EXTD=YEAR: 2004
EXTT0=
EXTT1=
EXTT2=
EXTT3=
PLAYORDER=
